<svg xmlns="http://www.w3.org/2000/svg" aria-hidden="true" role="img" focusable="false"
  style="visibility:hidden;position:absolute;width:0;height:0;overflow:hidden;">
  <symbol id="icon__loading" fill="none" viewBox="0 0 24 24">
    <path
      d="M12 3v3m0 12v3m9-9h-3M6 12H3m15.363-6.363-2.12 2.121m-8.485 8.484-2.121 2.121m12.726 0-2.12-2.12M7.757 7.757l-2.12-2.12"
      stroke="currentColor" stroke-width="1.5" stroke-linecap="round" />
  </symbol>

  <symbol id="icon__house" viewBox="0 0 256 256">
    <path fill="currentColor"
      d="m219.31 108.68-80-80a16 16 0 0 0-22.62 0l-80 80A15.87 15.87 0 0 0 32 120v96a8 8 0 0 0 8 8h64a8 8 0 0 0 8-8v-56h32v56a8 8 0 0 0 8 8h64a8 8 0 0 0 8-8v-96a15.87 15.87 0 0 0-4.69-11.32ZM208 208h-48v-56a8 8 0 0 0-8-8h-48a8 8 0 0 0-8 8v56H48v-88l80-80 80 80Z" />
  </symbol>
  <symbol id="icon__house-fill" viewBox="0 0 256 256">
    <path fill="currentColor"
      d="M224 120v96a8 8 0 0 1-8 8h-56a8 8 0 0 1-8-8v-52a4 4 0 0 0-4-4h-40a4 4 0 0 0-4 4v52a8 8 0 0 1-8 8H40a8 8 0 0 1-8-8v-96a16 16 0 0 1 4.69-11.31l80-80a16 16 0 0 1 22.62 0l80 80A16 16 0 0 1 224 120Z" />
  </symbol>

  <symbol id="icon__gear" viewBox="0 0 256 256">
    <path fill="currentColor"
      d="M128 80a48 48 0 1 0 48 48 48.05 48.05 0 0 0-48-48Zm0 80a32 32 0 1 1 32-32 32 32 0 0 1-32 32Zm88-29.84q.06-2.16 0-4.32l14.92-18.64a8 8 0 0 0 1.48-7.06 107.21 107.21 0 0 0-10.88-26.25 8 8 0 0 0-6-3.93l-23.72-2.64q-1.48-1.56-3-3L186 40.54a8 8 0 0 0-3.94-6 107.71 107.71 0 0 0-26.25-10.87 8 8 0 0 0-7.06 1.49L130.16 40h-4.32L107.2 25.11a8 8 0 0 0-7.06-1.48 107.6 107.6 0 0 0-26.25 10.88 8 8 0 0 0-3.93 6l-2.64 23.76q-1.56 1.49-3 3L40.54 70a8 8 0 0 0-6 3.94 107.71 107.71 0 0 0-10.87 26.25 8 8 0 0 0 1.49 7.06L40 125.84v4.32L25.11 148.8a8 8 0 0 0-1.48 7.06 107.21 107.21 0 0 0 10.88 26.25 8 8 0 0 0 6 3.93l23.72 2.64q1.49 1.56 3 3L70 215.46a8 8 0 0 0 3.94 6 107.71 107.71 0 0 0 26.25 10.87 8 8 0 0 0 7.06-1.49L125.84 216q2.16.06 4.32 0l18.64 14.92a8 8 0 0 0 7.06 1.48 107.21 107.21 0 0 0 26.25-10.88 8 8 0 0 0 3.93-6l2.64-23.72q1.56-1.48 3-3l23.78-2.8a8 8 0 0 0 6-3.94 107.71 107.71 0 0 0 10.87-26.25 8 8 0 0 0-1.49-7.06Zm-16.1-6.5a73.93 73.93 0 0 1 0 8.68 8 8 0 0 0 1.74 5.48l14.19 17.73a91.57 91.57 0 0 1-6.23 15l-22.6 2.56a8 8 0 0 0-5.1 2.64 74.11 74.11 0 0 1-6.14 6.14 8 8 0 0 0-2.64 5.1l-2.51 22.58a91.32 91.32 0 0 1-15 6.23l-17.74-14.19a8 8 0 0 0-5-1.75h-.48a73.93 73.93 0 0 1-8.68 0 8 8 0 0 0-5.48 1.74l-17.78 14.2a91.57 91.57 0 0 1-15-6.23L82.89 187a8 8 0 0 0-2.64-5.1 74.11 74.11 0 0 1-6.14-6.14 8 8 0 0 0-5.1-2.64l-22.58-2.52a91.32 91.32 0 0 1-6.23-15l14.19-17.74a8 8 0 0 0 1.74-5.48 73.93 73.93 0 0 1 0-8.68 8 8 0 0 0-1.74-5.48L40.2 100.45a91.57 91.57 0 0 1 6.23-15L69 82.89a8 8 0 0 0 5.1-2.64 74.11 74.11 0 0 1 6.14-6.14A8 8 0 0 0 82.89 69l2.51-22.57a91.32 91.32 0 0 1 15-6.23l17.74 14.19a8 8 0 0 0 5.48 1.74 73.93 73.93 0 0 1 8.68 0 8 8 0 0 0 5.48-1.74l17.77-14.19a91.57 91.57 0 0 1 15 6.23L173.11 69a8 8 0 0 0 2.64 5.1 74.11 74.11 0 0 1 6.14 6.14 8 8 0 0 0 5.1 2.64l22.58 2.51a91.32 91.32 0 0 1 6.23 15l-14.19 17.74a8 8 0 0 0-1.74 5.53Z" />
  </symbol>
  <symbol id="icon__gear-fill" viewBox="0 0 256 256">
    <path fill="currentColor"
      d="M216 130.16q.06-2.16 0-4.32l14.92-18.64a8 8 0 0 0 1.48-7.06 107.6 107.6 0 0 0-10.88-26.25 8 8 0 0 0-6-3.93l-23.72-2.64q-1.48-1.56-3-3L186 40.54a8 8 0 0 0-3.94-6 107.29 107.29 0 0 0-26.25-10.86 8 8 0 0 0-7.06 1.48L130.16 40h-4.32L107.2 25.11a8 8 0 0 0-7.06-1.48 107.6 107.6 0 0 0-26.25 10.88 8 8 0 0 0-3.93 6l-2.64 23.76q-1.56 1.49-3 3L40.54 70a8 8 0 0 0-6 3.94 107.71 107.71 0 0 0-10.87 26.25 8 8 0 0 0 1.49 7.06L40 125.84v4.32L25.11 148.8a8 8 0 0 0-1.48 7.06 107.6 107.6 0 0 0 10.88 26.25 8 8 0 0 0 6 3.93l23.72 2.64q1.49 1.56 3 3L70 215.46a8 8 0 0 0 3.94 6 107.71 107.71 0 0 0 26.25 10.87 8 8 0 0 0 7.06-1.49L125.84 216q2.16.06 4.32 0l18.64 14.92a8 8 0 0 0 7.06 1.48 107.21 107.21 0 0 0 26.25-10.88 8 8 0 0 0 3.93-6l2.64-23.72q1.56-1.48 3-3l23.78-2.8a8 8 0 0 0 6-3.94 107.71 107.71 0 0 0 10.87-26.25 8 8 0 0 0-1.49-7.06ZM128 168a40 40 0 1 1 40-40 40 40 0 0 1-40 40Z" />
  </symbol>

  <symbol id="icon__chevron-down" fill="none" viewBox="0 0 24 24">
    <path d="M19.5 9 12 16.5 4.5 9" stroke="currentColor" stroke-width="1.5" stroke-linecap="round"
      stroke-linejoin="round" />
  </symbol>

  <symbol id="icon__chevron-up" fill="none" viewBox="0 0 24 24">
    <path d="M4.5 15 12 7.5l7.5 7.5" stroke="currentColor" stroke-width="1.5" stroke-linecap="round"
      stroke-linejoin="round" />
  </symbol>

  <symbol id="icon__close" fill="none" viewBox="0 0 20 20">
    <path d="m6.4645 13.5355 7.071-7.071m0 7.071-7.071-7.071" stroke="currentColor" stroke-linecap="round"
      stroke-linejoin="round" />
  </symbol>

  <symbol id="icon__plus" fill="none" viewBox="0 0 24 24">
    <path d="M3.75 12h16.5M12 3.75v16.5" stroke="currentColor" stroke-width="1.5" stroke-linecap="round"
      stroke-linejoin="round" />
  </symbol>

  <symbol id="icon__clipboard" viewBox="0 0 256 256">
    <path fill="currentColor"
      d="M168 152a8 8 0 0 1-8 8H96a8 8 0 0 1 0-16h64a8 8 0 0 1 8 8Zm-8-40H96a8 8 0 0 0 0 16h64a8 8 0 0 0 0-16Zm56-64v168a16 16 0 0 1-16 16H56a16 16 0 0 1-16-16V48a16 16 0 0 1 16-16h36.26a47.92 47.92 0 0 1 71.48 0H200a16 16 0 0 1 16 16ZM96 64h64a32 32 0 0 0-64 0Zm104-16h-26.75A47.93 47.93 0 0 1 176 64v8a8 8 0 0 1-8 8H88a8 8 0 0 1-8-8v-8a47.93 47.93 0 0 1 2.75-16H56v168h144Z" />
  </symbol>
  <symbol id="icon__clipboard-fill" viewBox="0 0 256 256">
    <path fill="currentColor"
      d="M200 32h-36.26a47.92 47.92 0 0 0-71.48 0H56a16 16 0 0 0-16 16v168a16 16 0 0 0 16 16h144a16 16 0 0 0 16-16V48a16 16 0 0 0-16-16Zm-72 0a32 32 0 0 1 32 32H96a32 32 0 0 1 32-32Zm32 128H96a8 8 0 0 1 0-16h64a8 8 0 0 1 0 16Zm0-32H96a8 8 0 0 1 0-16h64a8 8 0 0 1 0 16Z" />
  </symbol>

  <symbol id="icon__chart-bar" viewBox="0 0 256 256">
    <path fill="currentColor"
      d="M232,208a8,8,0,0,1-8,8H32a8,8,0,0,1-8-8V48a8,8,0,0,1,16,0V156.69l50.34-50.35a8,8,0,0,1,11.32,0L128,132.69,180.69,80H160a8,8,0,0,1,0-16h40a8,8,0,0,1,8,8v40a8,8,0,0,1-16,0V91.31l-58.34,58.35a8,8,0,0,1-11.32,0L96,123.31l-56,56V200H224A8,8,0,0,1,232,208Z" />
  </symbol>
  <symbol id="icon__chart-bar-fill" viewBox="0 0 256 256">
    <path fill="currentColor"
      d="M216,40H40A16,16,0,0,0,24,56V200a16,16,0,0,0,16,16H216a16,16,0,0,0,16-16V56A16,16,0,0,0,216,40ZM200,192H56a8,8,0,0,1-8-8V72a8,8,0,0,1,16,0v76.69l34.34-34.35a8,8,0,0,1,11.32,0L128,132.69,172.69,88H144a8,8,0,0,1,0-16h48a8,8,0,0,1,8,8v48a8,8,0,0,1-16,0V99.31l-50.34,50.35a8,8,0,0,1-11.32,0L104,131.31l-40,40V176H200a8,8,0,0,1,0,16Z" />
  </symbol>
</svg>
